<mxfile host="65bd71144e">
    <diagram id="NdqDskgi8mpouaxwsnLu" name="Page-1">
        <mxGraphModel dx="-2947" dy="1473" grid="1" gridSize="5" guides="1" tooltips="1" connect="1" arrows="1" fold="1" page="1" pageScale="1" pageWidth="850" pageHeight="1100" math="0" shadow="0">
            <root>
                <mxCell id="0"/>
                <mxCell id="1" parent="0"/>
                <mxCell id="2" value="SAM" style="whiteSpace=wrap;html=1;fillColor=#d5e8d4;strokeColor=#000000;strokeWidth=3;fontSize=50;fontStyle=1;verticalAlign=top;spacing=-70;" parent="1" vertex="1">
                    <mxGeometry x="3725" y="-695" width="200" height="171.25" as="geometry"/>
                </mxCell>
                <mxCell id="63" style="edgeStyle=none;html=1;exitX=1;exitY=1;exitDx=0;exitDy=0;entryX=1;entryY=0.5;entryDx=0;entryDy=0;fontSize=5;" parent="1" source="4" target="12" edge="1">
                    <mxGeometry relative="1" as="geometry">
                        <Array as="points">
                            <mxPoint x="3912.73" y="-556.63"/>
                            <mxPoint x="3912.73" y="-634.63"/>
                        </Array>
                    </mxGeometry>
                </mxCell>
                <mxCell id="64" style="edgeStyle=none;html=1;entryX=1;entryY=0.5;entryDx=0;entryDy=0;fontSize=5;" parent="1" source="4" target="13" edge="1">
                    <mxGeometry relative="1" as="geometry">
                        <Array as="points">
                            <mxPoint x="3902.73" y="-567.63"/>
                            <mxPoint x="3902.73" y="-619.63"/>
                        </Array>
                    </mxGeometry>
                </mxCell>
                <mxCell id="65" style="edgeStyle=none;html=1;entryX=1;entryY=0.5;entryDx=0;entryDy=0;fontSize=5;exitX=0.5;exitY=0;exitDx=0;exitDy=0;" parent="1" source="81" target="14" edge="1">
                    <mxGeometry relative="1" as="geometry">
                        <Array as="points">
                            <mxPoint x="3893" y="-605"/>
                        </Array>
                        <mxPoint x="3893" y="-590" as="sourcePoint"/>
                    </mxGeometry>
                </mxCell>
                <mxCell id="4" value="RAG" style="ellipse;whiteSpace=wrap;html=1;aspect=fixed;sketch=0;fillColor=#d5e8d4;strokeColor=#82b366;fontStyle=1" parent="1" vertex="1">
                    <mxGeometry x="3840" y="-582.63" width="30" height="30" as="geometry"/>
                </mxCell>
                <mxCell id="55" style="edgeStyle=none;html=1;entryX=0;entryY=0.5;entryDx=0;entryDy=0;fontSize=5;exitX=0;exitY=1;exitDx=0;exitDy=0;" parent="1" source="15" target="46" edge="1">
                    <mxGeometry relative="1" as="geometry">
                        <Array as="points">
                            <mxPoint x="3737.73" y="-556.63"/>
                            <mxPoint x="3737.73" y="-634.63"/>
                        </Array>
                    </mxGeometry>
                </mxCell>
                <mxCell id="56" style="edgeStyle=none;html=1;exitX=0;exitY=0.5;exitDx=0;exitDy=0;entryX=0;entryY=0.5;entryDx=0;entryDy=0;fontSize=5;" parent="1" source="15" target="47" edge="1">
                    <mxGeometry relative="1" as="geometry">
                        <Array as="points">
                            <mxPoint x="3747.73" y="-567.63"/>
                            <mxPoint x="3747.73" y="-619.63"/>
                        </Array>
                    </mxGeometry>
                </mxCell>
                <mxCell id="57" style="edgeStyle=none;html=1;entryX=0;entryY=0.5;entryDx=0;entryDy=0;fontSize=5;exitX=0.5;exitY=0;exitDx=0;exitDy=0;" parent="1" source="80" target="48" edge="1">
                    <mxGeometry relative="1" as="geometry">
                        <Array as="points">
                            <mxPoint x="3758" y="-605"/>
                        </Array>
                        <mxPoint x="3758" y="-590" as="sourcePoint"/>
                    </mxGeometry>
                </mxCell>
                <mxCell id="15" value="WAG" style="ellipse;whiteSpace=wrap;html=1;aspect=fixed;sketch=0;fillColor=#d5e8d4;strokeColor=#82b366;fontStyle=1" parent="1" vertex="1">
                    <mxGeometry x="3787.7299999999996" y="-582.63" width="30" height="30" as="geometry"/>
                </mxCell>
                <mxCell id="59" value="" style="rounded=0;whiteSpace=wrap;html=1;fillColor=#000000;" parent="1" vertex="1">
                    <mxGeometry x="3779.997621683217" y="-655.13" width="7.732378316783294" height="10" as="geometry"/>
                </mxCell>
                <mxCell id="79" style="edgeStyle=none;html=1;fontSize=5;startArrow=none;startFill=0;endArrow=classic;endFill=1;strokeWidth=3;" parent="1" source="60" edge="1">
                    <mxGeometry relative="1" as="geometry">
                        <mxPoint x="4000" y="-650.63" as="targetPoint"/>
                    </mxGeometry>
                </mxCell>
                <mxCell id="60" value="" style="rounded=0;whiteSpace=wrap;html=1;fillColor=#000000;" parent="1" vertex="1">
                    <mxGeometry x="3924.997621683217" y="-655.63" width="7.732378316783294" height="10" as="geometry"/>
                </mxCell>
                <mxCell id="6" value="SRAM" style="rounded=0;whiteSpace=wrap;html=1;fontSize=8;labelBackgroundColor=none;fillColor=none;fontStyle=1;strokeWidth=1;" parent="1" vertex="1">
                    <mxGeometry x="3787.882378316783" y="-672.63" width="79.53524336643277" height="12.5" as="geometry"/>
                </mxCell>
                <mxCell id="7" value="" style="rounded=0;whiteSpace=wrap;html=1;fontSize=8;labelBackgroundColor=none;fillColor=none;fontStyle=1;strokeWidth=1;" parent="1" vertex="1">
                    <mxGeometry x="3787.882378316783" y="-660.13" width="79.53524336643297" height="67.5" as="geometry"/>
                </mxCell>
                <mxCell id="12" value="" style="rounded=0;whiteSpace=wrap;html=1;fillColor=#000000;" parent="1" vertex="1">
                    <mxGeometry x="3867.417621683217" y="-640.13" width="7.732378316783294" height="10" as="geometry"/>
                </mxCell>
                <mxCell id="13" value="" style="rounded=0;whiteSpace=wrap;html=1;fillColor=#000000;" parent="1" vertex="1">
                    <mxGeometry x="3867.417621683217" y="-625.13" width="7.732378316783294" height="10" as="geometry"/>
                </mxCell>
                <mxCell id="14" value="" style="rounded=0;whiteSpace=wrap;html=1;fillColor=#000000;" parent="1" vertex="1">
                    <mxGeometry x="3867.417621683217" y="-610.13" width="7.732378316783294" height="10" as="geometry"/>
                </mxCell>
                <mxCell id="68" style="edgeStyle=none;html=1;exitX=1;exitY=0.5;exitDx=0;exitDy=0;entryX=0;entryY=0.5;entryDx=0;entryDy=0;fontSize=5;" parent="1" source="17" target="60" edge="1">
                    <mxGeometry relative="1" as="geometry"/>
                </mxCell>
                <mxCell id="17" value="" style="rounded=0;whiteSpace=wrap;html=1;fillColor=#000000;" parent="1" vertex="1">
                    <mxGeometry x="3867.417621683217" y="-655.13" width="7.732378316783294" height="10" as="geometry"/>
                </mxCell>
                <mxCell id="42" value="addrb" style="text;html=1;strokeColor=none;fillColor=none;align=center;verticalAlign=middle;whiteSpace=wrap;rounded=0;fontSize=10;rotation=0;fontStyle=3" parent="1" vertex="1">
                    <mxGeometry x="3843.94" y="-642.63" width="15" height="15" as="geometry"/>
                </mxCell>
                <mxCell id="44" value="enb" style="text;html=1;strokeColor=none;fillColor=none;align=center;verticalAlign=middle;whiteSpace=wrap;rounded=0;fontSize=10;rotation=0;fontStyle=3" parent="1" vertex="1">
                    <mxGeometry x="3848.71" y="-627.63" width="12.58" height="15" as="geometry"/>
                </mxCell>
                <mxCell id="45" value="web" style="text;html=1;strokeColor=none;fillColor=none;align=center;verticalAlign=middle;whiteSpace=wrap;rounded=0;fontSize=10;rotation=0;fontStyle=3" parent="1" vertex="1">
                    <mxGeometry x="3848.71" y="-612.63" width="10" height="15" as="geometry"/>
                </mxCell>
                <mxCell id="46" value="" style="rounded=0;whiteSpace=wrap;html=1;fillColor=#000000;" parent="1" vertex="1">
                    <mxGeometry x="3780.1476216832166" y="-640.13" width="7.732378316783294" height="10" as="geometry"/>
                </mxCell>
                <mxCell id="47" value="" style="rounded=0;whiteSpace=wrap;html=1;fillColor=#000000;" parent="1" vertex="1">
                    <mxGeometry x="3780.1476216832166" y="-625.13" width="7.732378316783294" height="10" as="geometry"/>
                </mxCell>
                <mxCell id="48" value="" style="rounded=0;whiteSpace=wrap;html=1;fillColor=#000000;" parent="1" vertex="1">
                    <mxGeometry x="3780.1476216832166" y="-610.13" width="7.732378316783294" height="10" as="geometry"/>
                </mxCell>
                <mxCell id="67" style="edgeStyle=none;html=1;entryX=0;entryY=0.5;entryDx=0;entryDy=0;fontSize=5;" parent="1" source="49" target="59" edge="1">
                    <mxGeometry relative="1" as="geometry"/>
                </mxCell>
                <mxCell id="78" style="edgeStyle=none;html=1;fontSize=5;startArrow=classic;startFill=1;endArrow=none;endFill=0;strokeWidth=3;" parent="1" source="49" edge="1">
                    <mxGeometry relative="1" as="geometry">
                        <mxPoint x="3655" y="-650.63" as="targetPoint"/>
                    </mxGeometry>
                </mxCell>
                <mxCell id="49" value="" style="rounded=0;whiteSpace=wrap;html=1;fillColor=#000000;" parent="1" vertex="1">
                    <mxGeometry x="3717.2676216832165" y="-655.63" width="7.732378316783294" height="10" as="geometry"/>
                </mxCell>
                <mxCell id="50" value="dout" style="text;html=1;strokeColor=none;fillColor=none;align=center;verticalAlign=middle;whiteSpace=wrap;rounded=0;fontSize=10;rotation=0;fontStyle=3" parent="1" vertex="1">
                    <mxGeometry x="3846.36" y="-657.63" width="12.58" height="15" as="geometry"/>
                </mxCell>
                <mxCell id="51" value="addra" style="text;html=1;strokeColor=none;fillColor=none;align=center;verticalAlign=middle;whiteSpace=wrap;rounded=0;fontSize=10;rotation=0;fontStyle=3" parent="1" vertex="1">
                    <mxGeometry x="3794.02" y="-642.63" width="17.58" height="15" as="geometry"/>
                </mxCell>
                <mxCell id="52" value="ena" style="text;html=1;strokeColor=none;fillColor=none;align=center;verticalAlign=middle;whiteSpace=wrap;rounded=0;fontSize=10;rotation=0;fontStyle=3" parent="1" vertex="1">
                    <mxGeometry x="3792.73" y="-627.63" width="15" height="15" as="geometry"/>
                </mxCell>
                <mxCell id="53" value="wea" style="text;html=1;strokeColor=none;fillColor=none;align=center;verticalAlign=middle;whiteSpace=wrap;rounded=0;fontSize=10;rotation=0;fontStyle=3" parent="1" vertex="1">
                    <mxGeometry x="3792.73" y="-612.63" width="15" height="15" as="geometry"/>
                </mxCell>
                <mxCell id="54" value="dina" style="text;html=1;strokeColor=none;fillColor=none;align=center;verticalAlign=middle;whiteSpace=wrap;rounded=0;fontSize=10;rotation=0;fontStyle=3" parent="1" vertex="1">
                    <mxGeometry x="3792.73" y="-657.63" width="15" height="15" as="geometry"/>
                </mxCell>
                <mxCell id="80" value="1" style="ellipse;whiteSpace=wrap;html=1;aspect=fixed;sketch=0;fillColor=#d5e8d4;strokeColor=#82b366;fontStyle=1;fontSize=6;" parent="1" vertex="1">
                    <mxGeometry x="3752" y="-594.26" width="12.63" height="12.63" as="geometry"/>
                </mxCell>
                <mxCell id="81" value="0" style="ellipse;whiteSpace=wrap;html=1;aspect=fixed;sketch=0;fillColor=#d5e8d4;strokeColor=#82b366;fontStyle=1;fontSize=6;" parent="1" vertex="1">
                    <mxGeometry x="3887" y="-594.63" width="12.63" height="12.63" as="geometry"/>
                </mxCell>
            </root>
        </mxGraphModel>
    </diagram>
</mxfile>